<?xml version="1.0" encoding="us-ascii" standalone="no"?><svg xmlns="http://www.w3.org/2000/svg" xmlns:xlink="http://www.w3.org/1999/xlink" contentStyleType="text/css" height="506px" preserveAspectRatio="none" style="width:1300px;height:506px;background:#FFFFFF;" version="1.1" viewBox="0 0 1300 506" width="1300px" zoomAndPan="magnify"><defs/><g><g id="cluster_##5"><rect fill="none" height="418" rx="2.5" ry="2.5" style="stroke:#181818;stroke-width:1.0;" width="944" x="162" y="7"/></g><g id="elem_CU01" onclick="showSpec('CU01')" style="cursor:pointer"><ellipse cx="988.3975" cy="380.1795" fill="#F1F1F1" rx="101.3975" ry="22.6795" style="stroke:#181818;stroke-width:0.5;"/><text fill="#000000" font-family="sans-serif" font-size="14" lengthAdjust="spacing" textLength="164" x="906.3975" y="383.908">CU-01: Autenticar Usuario</text></g><g id="elem_CU02" onclick="showSpec('CU02')" style="cursor:pointer"><ellipse cx="648.4823" cy="374.1965" fill="#F1F1F1" rx="121.4823" ry="26.6965" style="stroke:#181818;stroke-width:0.5;"/><text fill="#000000" font-family="sans-serif" font-size="14" lengthAdjust="spacing" textLength="208" x="544.4823" y="377.925">CU-02: Cargar Datos Inteligencia</text></g><g id="elem_CU03" onclick="showSpec('CU03')" style="cursor:pointer"><ellipse cx="293.9339" cy="49.0868" fill="#F1F1F1" rx="115.9339" ry="25.5868" style="stroke:#181818;stroke-width:0.5;"/><text fill="#000000" font-family="sans-serif" font-size="14" lengthAdjust="spacing" textLength="196" x="195.9339" y="52.8153">CU-03: Validar Objetivos (BBA)</text></g><g id="elem_CU04" onclick="showSpec('CU04')" style="cursor:pointer"><ellipse cx="294.0137" cy="134.9027" fill="#F1F1F1" rx="115.0137" ry="25.4027" style="stroke:#181818;stroke-width:0.5;"/><text fill="#000000" font-family="sans-serif" font-size="14" lengthAdjust="spacing" textLength="194" x="197.0137" y="138.6313">CU-04: Gestionar Alimentaci&#243;n</text></g><g id="elem_CU05" onclick="showSpec('CU05')" style="cursor:pointer"><ellipse cx="293.9781" cy="219.8956" fill="#F1F1F1" rx="109.9781" ry="24.3956" style="stroke:#181818;stroke-width:0.5;"/><text fill="#000000" font-family="sans-serif" font-size="14" lengthAdjust="spacing" textLength="183" x="202.4781" y="223.6241">CU-05: Controlar Armamento</text></g><g id="elem_CU06" onclick="showSpec('CU06')" style="cursor:pointer"><ellipse cx="293.8945" cy="301.8789" fill="#F1F1F1" rx="97.3945" ry="21.8789" style="stroke:#181818;stroke-width:0.5;"/><text fill="#000000" font-family="sans-serif" font-size="14" lengthAdjust="spacing" textLength="155" x="216.3945" y="305.6074">CU-06: Entrenar Idiomas</text></g><g id="elem_CU07" onclick="showSpec('CU07')" style="cursor:pointer"><ellipse cx="293.804" cy="383.7608" fill="#F1F1F1" rx="111.804" ry="24.7608" style="stroke:#181818;stroke-width:0.5;"/><text fill="#000000" font-family="sans-serif" font-size="14" lengthAdjust="spacing" textLength="187" x="200.304" y="387.4893">CU-07: Gestionar Hormiguero</text></g><!--entity u--><g id="elem_u"><ellipse cx="60.5" cy="431.5" fill="#F1F1F1" rx="8" ry="8" style="stroke:#181818;stroke-width:0.5;"/><path d="M60.5,439.5 L60.5,466.5 M47.5,447.5 L73.5,447.5 M60.5,466.5 L47.5,481.5 M60.5,466.5 L73.5,481.5 " fill="none" style="stroke:#181818;stroke-width:0.5;"/><text fill="#000000" font-family="sans-serif" font-size="14" lengthAdjust="spacing" textLength="88" x="16.5" y="497.5332">Miembro KGD</text></g><!--entity l--><g id="elem_l"><ellipse cx="60.5" cy="271.5" fill="#F1F1F1" rx="8" ry="8" style="stroke:#181818;stroke-width:0.5;"/><path d="M60.5,279.5 L60.5,306.5 M47.5,287.5 L73.5,287.5 M60.5,306.5 L47.5,321.5 M60.5,306.5 L73.5,321.5 " fill="none" style="stroke:#181818;stroke-width:0.5;"/><text fill="#000000" font-family="sans-serif" font-size="14" lengthAdjust="spacing" textLength="109" x="6" y="337.5332">Experto Ling&#252;ista</text></g><!--entity i--><g id="elem_i"><ellipse cx="60.5" cy="104.5" fill="#F1F1F1" rx="8" ry="8" style="stroke:#181818;stroke-width:0.5;"/><path d="M60.5,112.5 L60.5,139.5 M47.5,120.5 L73.5,120.5 M60.5,139.5 L47.5,154.5 M60.5,139.5 L73.5,154.5 " fill="none" style="stroke:#181818;stroke-width:0.5;"/><text fill="#000000" font-family="sans-serif" font-size="14" lengthAdjust="spacing" textLength="69" x="26" y="170.5332">Sistema IIA</text></g><!--entity a--><g id="elem_a"><ellipse cx="1223" cy="349.5" fill="#F1F1F1" rx="8" ry="8" style="stroke:#181818;stroke-width:0.5;"/><path d="M1223,357.5 L1223,384.5 M1210,365.5 L1236,365.5 M1223,384.5 L1210,399.5 M1223,384.5 L1236,399.5 " fill="none" style="stroke:#181818;stroke-width:0.5;"/><text fill="#000000" font-family="sans-serif" font-size="14" lengthAdjust="spacing" textLength="140" x="1153" y="415.5332">Sistema AntCiberDron</text></g><!--link u to CU01--><g id="link_u_CU01"><path d="M104.83,463.24 C117.76,463.55 131.95,463.84 145,464 C262.77,465.41 292.46,471.48 410,464 C570.98,453.76 610.51,442.11 770,418 C816.62,410.95 862.7457,402.9776 904.2257,395.4776 " fill="none" id="u-to-CU01" style="stroke:#181818;stroke-width:1.0;"/><polygon fill="#181818" points="910.13,394.41,900.5619,392.0751,905.2098,395.2996,901.9853,399.9475,910.13,394.41" style="stroke:#181818;stroke-width:1.0;"/></g><!--link u to CU02--><g id="link_u_CU02"><path d="M104.63,459.12 C170.67,454.34 300.7,443.55 410,426 C462.93,417.5 515.9498,406.0157 561.8398,395.2057 " fill="none" id="u-to-CU02" style="stroke:#181818;stroke-width:1.0;"/><polygon fill="#181818" points="567.68,393.83,558.0026,392.0002,562.8132,394.9764,559.8369,399.787,567.68,393.83" style="stroke:#181818;stroke-width:1.0;"/></g><!--link u to CU07--><g id="link_u_CU07"><path d="M104.5,447.51 C140.07,435.53 185.354,420.2657 225.334,406.7957 " fill="none" id="u-to-CU07" style="stroke:#181818;stroke-width:1.0;"/><polygon fill="#181818" points="231.02,404.88,221.2139,403.9629,226.2817,406.4764,223.7682,411.5442,231.02,404.88" style="stroke:#181818;stroke-width:1.0;"/></g><!--link l to CU06--><g id="link_l_CU06"><path d="M115.19,302 C139.37,302 162.67,302 190.46,302 " fill="none" id="l-to-CU06" style="stroke:#181818;stroke-width:1.0;"/><polygon fill="#181818" points="196.46,302,187.46,298,191.46,302,187.46,306,196.46,302" style="stroke:#181818;stroke-width:1.0;"/></g><!--link i to CU03--><g id="link_i_CU03"><path d="M95.29,117.95 C112.6,109.56 134.17,99.64 154,92 C175.69,83.65 194.0023,77.5046 215.9123,70.8046 " fill="none" id="i-to-CU03" style="stroke:#181818;stroke-width:1.0;"/><polygon fill="#181818" points="221.65,69.05,211.8737,67.8567,216.8686,70.5121,214.2131,75.507,221.65,69.05" style="stroke:#181818;stroke-width:1.0;"/></g><!--link i to CU04--><g id="link_i_CU04"><path d="M95.16,135 C117.48,135 142.2,135 172.77,135 " fill="none" id="i-to-CU04" style="stroke:#181818;stroke-width:1.0;"/><polygon fill="#181818" points="178.77,135,169.77,131,173.77,135,169.77,139,178.77,135" style="stroke:#181818;stroke-width:1.0;"/></g><!--link i to CU05--><g id="link_i_CU05"><path d="M95.27,152.1 C112.58,160.51 134.14,170.43 154,178 C176.26,186.49 195.2783,192.7217 217.6683,199.3717 " fill="none" id="i-to-CU05" style="stroke:#181818;stroke-width:1.0;"/><polygon fill="#181818" points="223.42,201.08,215.9314,194.6831,218.6269,199.6564,213.6536,202.352,223.42,201.08" style="stroke:#181818;stroke-width:1.0;"/></g><!--reverse link CU01 to a--><g id="link_CU01_a"><path d="M1096.13,380 C1117.23,380 1133.04,380 1152.7,380 " fill="none" id="CU01-backto-a" style="stroke:#181818;stroke-width:1.0;"/><polygon fill="#181818" points="1090.13,380,1099.13,384,1095.13,380,1099.13,376,1090.13,380" style="stroke:#181818;stroke-width:1.0;"/></g><!--link CU02 to CU01--><g id="link_CU02_CU01"><path d="M769.62,376.13 C808.14,376.82 844.3609,377.4644 881.3009,378.1144 " fill="none" id="CU02-to-CU01" style="stroke:#181818;stroke-width:1.0;stroke-dasharray:7.0,7.0;"/><polygon fill="#181818" points="887.3,378.22,878.3718,374.0623,882.3008,378.132,878.231,382.061,887.3,378.22" style="stroke:#181818;stroke-width:1.0;"/><text fill="#000000" font-family="sans-serif" font-size="13" lengthAdjust="spacing" textLength="55" x="801" y="373.4951">&#171;include&#187;</text></g><!--link CU03 to CU02--><g id="link_CU03_CU02"><path d="M365.98,69.03 C381.25,75.08 396.76,82.66 410,92 C513.04,164.68 595.004,287.3848 628.754,342.4348 " fill="none" id="CU03-to-CU02" style="stroke:#181818;stroke-width:1.0;stroke-dasharray:7.0,7.0;"/><polygon fill="#181818" points="631.89,347.55,630.5961,337.7865,629.2766,343.2873,623.7758,341.9679,631.89,347.55" style="stroke:#181818;stroke-width:1.0;"/><text fill="#000000" font-family="sans-serif" font-size="13" lengthAdjust="spacing" textLength="55" x="441" y="113.4951">&#171;include&#187;</text></g><!--SRC=[NP3DJiCm48JlVefLJt18rIRzaQAgKffM9GB40PNxDbd28iT6ZeEG44_5bLjV3BkLMyXjb9blCbv9pnQi1iFrYuMA3PMMjH82IwiD3EwPchtHSBjT3m1Rw8An-NWZuy0xLlNXXrkBHry6_z5zeWQXABAZmKBuRbIr9FWK05rB9RO4WtmNZSOfP9qbPRb40xksGyFwoEMxqRYVZbF8qTGkkKQhMoYK9SargP8nG74VIb9uGicLenxshsJvtP5NgrLs7P2aZqnIs5Bhx-6WJ7BZ1cB9XsyLa4aVcRffMbcZfKTCWvuvlsJQZyzIsBWq-HyK5Ui6sv2TzRFplsjkj6cuxiYSk-VYI_IFdocRyvxCskZJP1IYWoXQdivwbl55peKCSYOuoEGY9nSv5SBtm2AAVBClWk7mL0ufB1QiIjbLj5nwBmbU_D_x1G00]--></g></svg>