<?xml version="1.0" encoding="us-ascii" standalone="no"?><svg xmlns="http://www.w3.org/2000/svg" xmlns:xlink="http://www.w3.org/1999/xlink" contentStyleType="text/css" height="448px" preserveAspectRatio="none" style="width:1112px;height:448px;background:#FFFFFF;" version="1.1" viewBox="0 0 1112 448" width="1112px" zoomAndPan="magnify"><defs/><g><!--cluster Sistema AntCiberDron--><g id="cluster_Sistema AntCiberDron"><rect fill="none" height="352" rx="2.5" ry="2.5" style="stroke:#181818;stroke-width:1.0;" width="944" x="162" y="61.5"/><text fill="#000000" font-family="sans-serif" font-size="14" font-weight="bold" lengthAdjust="spacing" textLength="154" x="557" y="78.0332">Sistema AntCiberDron</text></g><g id="elem_CU01" onclick="showSpec('CU01')" style="cursor:pointer"><ellipse cx="988.3975" cy="121.6795" fill="#F1F1F1" rx="101.3975" ry="22.6795" style="stroke:#181818;stroke-width:0.5;"/><text fill="#000000" font-family="sans-serif" font-size="14" lengthAdjust="spacing" textLength="164" x="906.3975" y="125.408">CU-01: Autenticar Usuario</text></g><g id="elem_CU02" onclick="showSpec('CU02')" style="cursor:pointer"><ellipse cx="648.4823" cy="124.6965" fill="#F1F1F1" rx="121.4823" ry="26.6965" style="stroke:#181818;stroke-width:0.5;"/><text fill="#000000" font-family="sans-serif" font-size="14" lengthAdjust="spacing" textLength="208" x="544.4823" y="128.425">CU-02: Cargar Datos Inteligencia</text></g><g id="elem_CU03" onclick="showSpec('CU03')" style="cursor:pointer"><ellipse cx="293.9339" cy="287.5868" fill="#F1F1F1" rx="115.9339" ry="25.5868" style="stroke:#181818;stroke-width:0.5;"/><text fill="#000000" font-family="sans-serif" font-size="14" lengthAdjust="spacing" textLength="196" x="195.9339" y="291.3153">CU-03: Validar Objetivos (BBA)</text></g><g id="elem_CU04" onclick="showSpec('CU04')" style="cursor:pointer"><ellipse cx="648.5137" cy="291.4027" fill="#F1F1F1" rx="115.0137" ry="25.4027" style="stroke:#181818;stroke-width:0.5;"/><text fill="#000000" font-family="sans-serif" font-size="14" lengthAdjust="spacing" textLength="194" x="551.5137" y="295.1313">CU-04: Gestionar Alimentaci&#243;n</text></g><g id="elem_CU05" onclick="showSpec('CU05')" style="cursor:pointer"><ellipse cx="293.9781" cy="372.3956" fill="#F1F1F1" rx="109.9781" ry="24.3956" style="stroke:#181818;stroke-width:0.5;"/><text fill="#000000" font-family="sans-serif" font-size="14" lengthAdjust="spacing" textLength="183" x="202.4781" y="376.1241">CU-05: Controlar Armamento</text></g><g id="elem_CU06" onclick="showSpec('CU06')" style="cursor:pointer"><ellipse cx="293.8945" cy="204.3789" fill="#F1F1F1" rx="97.3945" ry="21.8789" style="stroke:#181818;stroke-width:0.5;"/><text fill="#000000" font-family="sans-serif" font-size="14" lengthAdjust="spacing" textLength="155" x="216.3945" y="208.1074">CU-06: Entrenar Idiomas</text></g><g id="elem_CU07" onclick="showSpec('CU07')" style="cursor:pointer"><ellipse cx="293.804" cy="122.2608" fill="#F1F1F1" rx="111.804" ry="24.7608" style="stroke:#181818;stroke-width:0.5;"/><text fill="#000000" font-family="sans-serif" font-size="14" lengthAdjust="spacing" textLength="187" x="200.304" y="125.9893">CU-07: Gestionar Hormiguero</text></g><!--entity u--><g id="elem_u"><ellipse cx="60.5" cy="14" fill="#F1F1F1" rx="8" ry="8" style="stroke:#181818;stroke-width:0.5;"/><path d="M60.5,22 L60.5,49 M47.5,30 L73.5,30 M60.5,49 L47.5,64 M60.5,49 L73.5,64 " fill="none" style="stroke:#181818;stroke-width:0.5;"/><text fill="#000000" font-family="sans-serif" font-size="14" lengthAdjust="spacing" textLength="88" x="16.5" y="80.0332">Miembro KGD</text></g><!--entity l--><g id="elem_l"><ellipse cx="60.5" cy="174" fill="#F1F1F1" rx="8" ry="8" style="stroke:#181818;stroke-width:0.5;"/><path d="M60.5,182 L60.5,209 M47.5,190 L73.5,190 M60.5,209 L47.5,224 M60.5,209 L73.5,224 " fill="none" style="stroke:#181818;stroke-width:0.5;"/><text fill="#000000" font-family="sans-serif" font-size="14" lengthAdjust="spacing" textLength="109" x="6" y="240.0332">Experto Ling&#252;ista</text></g><!--entity i--><g id="elem_i"><ellipse cx="60.5" cy="342" fill="#F1F1F1" rx="8" ry="8" style="stroke:#181818;stroke-width:0.5;"/><path d="M60.5,350 L60.5,377 M47.5,358 L73.5,358 M60.5,377 L47.5,392 M60.5,377 L73.5,392 " fill="none" style="stroke:#181818;stroke-width:0.5;"/><text fill="#000000" font-family="sans-serif" font-size="14" lengthAdjust="spacing" textLength="69" x="26" y="408.0332">Sistema IIA</text></g><!--link u to CU01--><g id="link_u_CU01"><path d="M104.51,30.51 C117.69,27.4 132.32,25.11 146,25.5 C424.3,33.4 494.66,39.31 770,80.5 C818.07,87.69 865.8557,96.6173 907.8557,104.9873 " fill="none" id="u-to-CU01" style="stroke:#181818;stroke-width:1.0;"/><polygon fill="#181818" points="913.74,106.16,905.6953,100.4782,908.8364,105.1828,904.1318,108.3239,913.74,106.16" style="stroke:#181818;stroke-width:1.0;"/></g><!--link u to CU02--><g id="link_u_CU02"><path d="M104.57,47.61 C170.53,52.65 300.47,63.65 410,79.5 C460.15,86.75 509.9471,96.0005 554.7871,104.9905 " fill="none" id="u-to-CU02" style="stroke:#181818;stroke-width:1.0;"/><polygon fill="#181818" points="560.67,106.17,552.6319,100.4788,555.7676,105.1871,551.0593,108.3227,560.67,106.17" style="stroke:#181818;stroke-width:1.0;"/></g><!--link u to CU07--><g id="link_u_CU07"><path d="M104.5,58.99 C140.07,70.97 185.354,86.2343 225.334,99.7043 " fill="none" id="u-to-CU07" style="stroke:#181818;stroke-width:1.0;"/><polygon fill="#181818" points="231.02,101.62,223.7682,94.9558,226.2817,100.0236,221.2139,102.5371,231.02,101.62" style="stroke:#181818;stroke-width:1.0;"/></g><!--link l to CU06--><g id="link_l_CU06"><path d="M115.19,204.5 C139.37,204.5 162.67,204.5 190.46,204.5 " fill="none" id="l-to-CU06" style="stroke:#181818;stroke-width:1.0;"/><polygon fill="#181818" points="196.46,204.5,187.46,200.5,191.46,204.5,187.46,208.5,196.46,204.5" style="stroke:#181818;stroke-width:1.0;"/></g><!--link i to CU03--><g id="link_i_CU03"><path d="M95.33,355.9 C112.65,347.72 134.22,338.02 154,330.5 C175.84,322.2 194.3115,316.0321 216.3215,309.3121 " fill="none" id="i-to-CU03" style="stroke:#181818;stroke-width:1.0;"/><polygon fill="#181818" points="222.06,307.56,212.2842,306.3624,217.2779,309.02,214.6203,314.0137,222.06,307.56" style="stroke:#181818;stroke-width:1.0;"/></g><!--link i to CU04--><g id="link_i_CU04"><path d="M95.43,392.12 C112.42,400.83 133.66,410.1 154,414.5 C265.2,438.56 299.45,441.43 410,414.5 C488.05,395.49 564.1053,349.3692 608.4453,319.2792 " fill="none" id="i-to-CU04" style="stroke:#181818;stroke-width:1.0;"/><polygon fill="#181818" points="613.41,315.91,603.7168,317.6539,609.2727,318.7176,608.209,324.2736,613.41,315.91" style="stroke:#181818;stroke-width:1.0;"/></g><!--link i to CU05--><g id="link_i_CU05"><path d="M95.16,372.5 C118.74,372.5 145.67,372.5 177.92,372.5 " fill="none" id="i-to-CU05" style="stroke:#181818;stroke-width:1.0;"/><polygon fill="#181818" points="183.92,372.5,174.92,368.5,178.92,372.5,174.92,376.5,183.92,372.5" style="stroke:#181818;stroke-width:1.0;"/></g><!--link CU02 to CU01--><g id="link_CU02_CU01"><path d="M770.09,123.43 C808.39,123.09 844.3102,122.7739 881.0302,122.4439 " fill="none" id="CU02-to-CU01" style="stroke:#181818;stroke-width:1.0;stroke-dasharray:7.0,7.0;"/><polygon fill="#181818" points="887.03,122.39,877.9944,118.471,882.0302,122.4349,878.0663,126.4707,887.03,122.39" style="stroke:#181818;stroke-width:1.0;"/><text fill="#000000" font-family="sans-serif" font-size="13" lengthAdjust="spacing" textLength="55" x="801" y="119.9951">&#171;include&#187;</text></g><!--link CU03 to CU02--><g id="link_CU03_CU02"><path d="M376.77,269.41 C414.4,259.53 459.02,245.59 497,227.5 C541.31,206.4 582.4123,176.7971 611.6823,153.7971 " fill="none" id="CU03-to-CU02" style="stroke:#181818;stroke-width:1.0;stroke-dasharray:7.0,7.0;"/><polygon fill="#181818" points="616.4,150.09,606.852,152.5056,612.4685,153.1793,611.7948,158.7959,616.4,150.09" style="stroke:#181818;stroke-width:1.0;"/><text fill="#000000" font-family="sans-serif" font-size="13" lengthAdjust="spacing" textLength="55" x="441" y="223.9951">&#171;include&#187;</text></g><!--link CU07 to CU04--><g id="link_CU07_CU04"><path d="M355.68,143.5 C373.32,149.92 392.54,157.22 410,164.5 C482.5,194.75 556.9663,236.9176 603.1463,264.4476 " fill="none" id="CU07-to-CU04" style="stroke:#181818;stroke-width:1.0;stroke-dasharray:7.0,7.0;"/><polygon fill="#181818" points="608.3,267.52,602.6177,259.4757,604.0052,264.9597,598.5212,266.3473,608.3,267.52" style="stroke:#181818;stroke-width:1.0;"/><text fill="#000000" font-family="sans-serif" font-size="13" lengthAdjust="spacing" textLength="55" x="441" y="175.9951">&#171;include&#187;</text></g><!--SRC=[PP1DIyD048Rl-ok6dlHGQTEqWL0AQLfgKF4WzRvDnZYosPNz447yLLwzzO-vYMwZyVQIvtqcioFmmO9LeAb-j52HnjAIaeoNLcaOtH0s1wtWQhSP0JVW0jY-FgFstZN9-lX9nlAEYy3l_2TiE1H5rW5YxMGkQu4zpAJDwO1wevKSmHi0SmPBRdmbtuydqnGoPr5QAhc6lN5Sa-gcvVl9TDYEKiYvhdrpmwqoK4YBWcgK9V4WHKDfbi8z5rHvw_RmX9PUl7csNcVdGPaDbJY57PhsI5xA13L-GLxIyKC69HugSx-QabOhqIgwuQrpUibyM5-aiFLjR7zGLAGQRa9tCUmclxUvLBgXsg4-pKxOEtCm7g-wa_KnwcF2H8WBHY7E-XZtSSww8rvSVC-359PBagLm5QvMhBlM3ul-ioIm-2_x0W00]--></g></svg>